<svg width="200" height="134" viewBox="0 0 200 134" fill="none" xmlns="http://www.w3.org/2000/svg">
<path fill-rule="evenodd" clip-rule="evenodd" d="M12.9525 0.402918L12.9666 0.805837L13.1498 0.820977L13.3329 0.836166V0.418058V0H13.1356H12.9383L12.9525 0.402918ZM34.697 0.0629041C34.6825 0.100803 34.6772 0.283459 34.6852 0.468802L34.6998 0.805837H34.8952H35.0905V0.415128V0.0244193L34.907 0.0092305C34.7831 -0.00102561 34.7149 0.0164098 34.697 0.0629041ZM57.2003 0.402918L57.2144 0.805837L57.3976 0.820977L57.5807 0.836166V0.418058V0H57.3834H57.186L57.2003 0.402918ZM78.9436 0.0658833C78.9298 0.102122 78.9249 0.283459 78.933 0.468802L78.9476 0.805837L79.1307 0.820977L79.3139 0.836166V0.418058V0H79.1414C79.0418 0 78.9583 0.0277892 78.9436 0.0658833ZM100.422 0.402918L100.437 0.805837H100.608H100.778L100.793 0.402918L100.807 0H100.608H100.408L100.422 0.402918ZM122.048 0.418058V0.836166L122.231 0.820977L122.414 0.805837L122.428 0.402918L122.442 0H122.245H122.048V0.418058ZM143.645 0.402918L143.659 0.805837L143.842 0.820977L144.025 0.836166V0.418058V0H143.828H143.63L143.645 0.402918ZM165.514 0.418058V0.836166L165.697 0.820977L165.88 0.805837L165.894 0.402918L165.909 0H165.711H165.514V0.418058ZM187.257 0.402918L187.272 0.805837L187.455 0.820977L187.638 0.836166V0.418058V0H187.441H187.243L187.257 0.402918ZM12.9422 4.41989V5.61644H13.1376H13.3329V4.41989V3.22335H13.1376H12.9422V4.41989ZM34.6754 4.41989V5.62206L34.883 5.60701L35.0905 5.59202V4.41989V3.24777L34.883 3.23277L34.6754 3.21773V4.41989ZM57.19 4.41989V5.61644H57.3854H57.5807V4.41989V3.22335H57.3854H57.19V4.41989ZM78.9451 3.28547C78.932 3.31961 78.9272 3.85258 78.9345 4.46981L78.9476 5.59202L79.1307 5.60716L79.3139 5.62235V4.42282V3.22335H79.1414C79.0466 3.22335 78.9582 3.25128 78.9451 3.28547ZM100.412 4.41989V5.61644H100.608H100.803V4.41989V3.22335H100.608H100.412V4.41989ZM122.048 4.41989V5.61644H122.243H122.438V4.41989V3.22335H122.243H122.048V4.41989ZM143.634 4.41989V5.61644H143.83H144.025V4.41989V3.22335H143.83H143.634V4.41989ZM165.514 4.41989V5.61644H165.709H165.905V4.41989V3.22335H165.709H165.514V4.41989ZM187.247 4.41989V5.61644H187.443H187.638V4.41989V3.22335H187.443H187.247V4.41989ZM12.9422 9.25492V10.4515H13.1376H13.3329V9.25492V8.05837H13.1376H12.9422V9.25492ZM34.6754 9.2577V10.4571L34.883 10.442L35.0905 10.427L35.1036 9.24271L35.1167 8.05837H34.8961H34.6754V9.2577ZM57.19 9.25492V10.4515H57.3854H57.5807V9.25492V8.05837H57.3854H57.19V9.25492ZM78.9345 9.24271L78.9476 10.427L79.1307 10.4422L79.3139 10.4574V9.25785V8.05837H79.1177H78.9214L78.9345 9.24271ZM100.412 9.25492V10.4515H100.608H100.803V9.25492V8.05837H100.608H100.412V9.25492ZM122.048 9.25492V10.4515H122.243H122.438V9.25492V8.05837H122.243H122.048V9.25492ZM143.634 9.25492V10.4515H143.83H144.025V9.25492V8.05837H143.83H143.634V9.25492ZM165.514 9.25492V10.4515H165.709H165.905V9.25492V8.05837H165.709H165.514V9.25492ZM187.247 9.25492V10.4515H187.443H187.638V9.25492V8.05837H187.443H187.247V9.25492ZM0 11.8678V12.0631H1.19655H2.39309V11.8678V11.6724H1.19655H0V11.8678ZM4.83502 11.8678V12.0631H6.03157H7.22811V11.8678V11.6724H6.03157H4.83502V11.8678ZM9.62121 11.8686V12.0648L10.83 12.0518L12.0387 12.0387L12.0539 11.8556L12.069 11.6724H10.8451H9.62121V11.8686ZM14.4562 11.8678V12.0631H15.6528H16.8493V11.8678V11.6724H15.6528H14.4562V11.8678ZM19.2912 11.8678V12.0631H20.4878H21.6843V11.8678V11.6724H20.4878H19.2912V11.8678ZM24.0867 11.8556L24.1019 12.0387L25.3106 12.0518L26.5194 12.0648V11.8686V11.6724H25.2955H24.0715L24.0867 11.8556ZM28.9125 11.8686V12.0648L30.1212 12.0518L31.33 12.0387L31.3451 11.8556L31.3603 11.6724H30.1363H28.9125V11.8686ZM33.7475 11.8678V12.0631H34.944H36.1406V11.8678V11.6724H34.944H33.7475V11.8678ZM38.5429 11.8556L38.5581 12.0387H39.7546H40.9512L40.9663 11.8556L40.9815 11.6724H39.7546H38.5278L38.5429 11.8556ZM43.378 11.8556L43.3931 12.0387H44.5896H45.7862L45.8013 11.8556L45.8165 11.6724H44.5896H43.3628L43.378 11.8556ZM46.592 11.8687V12.0649L47.7519 12.0518L48.9119 12.0387L48.927 11.8556L48.9422 11.6724H47.7671H46.592V11.8687ZM51.3294 11.8678V12.0631H52.5259H53.7225V11.8678V11.6724H52.5259H51.3294V11.8678ZM56.1248 11.8556L56.14 12.0387L57.3487 12.0518L58.5575 12.0648V11.8686V11.6724H57.3336H56.1096L56.1248 11.8556ZM60.9506 11.8686V12.0648L62.1593 12.0518L63.3681 12.0387L63.3832 11.8556L63.3984 11.6724H62.1745H60.9506V11.8686ZM65.7856 11.8678V12.0631H66.9821H68.1787V11.8678V11.6724H66.9821H65.7856V11.8678ZM70.5811 11.8556L70.5962 12.0387L71.805 12.0518L73.0137 12.0648V11.8686V11.6724H71.7898H70.5659L70.5811 11.8556ZM75.4161 11.8556L75.4312 12.0387H76.6278H77.8243L77.8395 11.8556L77.8546 11.6724H76.6278H75.4009L75.4161 11.8556ZM80.2418 11.8678V12.0631H81.4384H82.6349V11.8678V11.6724H81.4384H80.2418V11.8678ZM85.0471 11.7421C85.0323 11.7805 85.0275 11.8629 85.0364 11.9253L85.0524 12.0387L86.2612 12.0518L87.4699 12.0648V11.8686V11.6724H86.2719C85.2791 11.6724 85.0692 11.6844 85.0471 11.7421ZM89.8723 11.8556L89.8875 12.0387L91.0962 12.0518L92.305 12.0648V11.8686V11.6724H91.0811H89.8571L89.8723 11.8556ZM94.7073 11.8556L94.7225 12.0387H95.919H97.1156L97.1307 11.8556L97.1459 11.6724H95.919H94.6921L94.7073 11.8556ZM99.5331 11.8678V12.0631H100.73H101.926V11.8678V11.6724H100.73H99.5331V11.8678ZM104.368 11.8678V12.0631H105.565H106.761V11.8678V11.6724H105.565H104.368V11.8678ZM109.164 11.8556L109.179 12.0387H110.375H111.572L111.587 11.8556L111.602 11.6724H110.375H109.148L109.164 11.8556ZM113.989 11.8678V12.0631H115.186H116.382V11.8678V11.6724H115.186H113.989V11.8678ZM118.824 11.8678V12.0631H120.021H121.217V11.8678V11.6724H120.021H118.824V11.8678ZM123.62 11.8556L123.635 12.0387H124.831H126.028L126.043 11.8556L126.058 11.6724H124.831H123.605L123.62 11.8556ZM128.446 11.8686V12.0648L129.654 12.0518L130.863 12.0387L130.878 11.8556L130.893 11.6724H129.669H128.446V11.8686ZM133.281 11.8678V12.0631H134.477H135.674V11.8678V11.6724H134.477H133.281V11.8678ZM138.076 11.8556L138.091 12.0387L139.3 12.0518L140.509 12.0648V11.8686V11.6724H139.285H138.061L138.076 11.8556ZM142.902 11.8686V12.0648L144.111 12.0518L145.319 12.0387L145.334 11.8556L145.35 11.6724H144.126H142.902V11.8686ZM147.737 11.8678V12.0631H148.933H150.13V11.8678V11.6724H148.933H147.737V11.8678ZM152.572 11.8678V12.0631H153.768H154.965V11.8678V11.6724H153.768H152.572V11.8678ZM157.367 11.8556L157.382 12.0387H158.579H159.775L159.791 11.8556L159.806 11.6724H158.579H157.352L157.367 11.8556ZM162.193 11.8678V12.0631H163.39H164.586V11.8678V11.6724H163.39H162.193V11.8678ZM166.988 11.8556L167.004 12.0387L168.212 12.0518L169.421 12.0648V11.8686V11.6724H168.197H166.973L166.988 11.8556ZM171.823 11.8556L171.839 12.0387H173.035H174.232L174.247 11.8556L174.262 11.6724H173.035H171.808L171.823 11.8556ZM176.649 11.8678V12.0648L177.858 12.0518L179.067 12.0387V11.8678V11.6968L177.858 11.6838L176.649 11.6707V11.8678ZM181.484 11.8678V12.0631H182.681H183.877V11.8678V11.6724H182.681H181.484V11.8678ZM186.28 11.8556L186.295 12.0387L187.504 12.0518L188.712 12.0648V11.8686V11.6724H187.488H186.265L186.28 11.8556ZM191.105 11.8686V12.0648L192.314 12.0518L193.523 12.0387L193.538 11.8556L193.553 11.6724H192.329H191.105V11.8686ZM195.94 11.8678V12.0631H197.137H198.334V11.8678V11.6724H197.137H195.94V11.8678ZM199.164 11.8697V12.0671L199.567 12.0529L199.97 12.0387L199.985 11.8556L200 11.6724H199.582H199.164V11.8697ZM12.9422 14.0655V15.2865H13.1376H13.3329V14.0655V12.8446H13.1376H12.9422V14.0655ZM34.6985 12.9036C34.6848 12.9394 34.6795 13.4847 34.6867 14.1154L34.6998 15.2621H34.8952H35.0905V14.0655V12.869L34.907 12.8538C34.7876 12.8439 34.7147 12.8614 34.6985 12.9036ZM57.19 14.0655V15.2865H57.3854H57.5807V14.0655V12.8446H57.3854H57.19V14.0655ZM78.9452 12.9066C78.932 12.9408 78.9272 13.4847 78.9345 14.1154L78.9476 15.2621L79.1307 15.2772L79.3139 15.2924V14.0684V12.8446H79.1414C79.0466 12.8446 78.9582 12.8725 78.9452 12.9066ZM100.412 14.0655V15.2865H100.608H100.803V14.0655V12.8446H100.608H100.412V14.0655ZM122.048 14.0655V15.2865H122.243H122.438V14.0655V12.8446H122.243H122.048V14.0655ZM143.634 14.0655V15.2865H143.83H144.025V14.0655V12.8446H143.83H143.634V14.0655ZM165.514 14.0655V15.2865H165.709H165.905V14.0655V12.8446H165.709H165.514V14.0655ZM187.247 14.0655V15.2865H187.443H187.638V14.0655V12.8446H187.443H187.247V14.0655ZM12.9422 18.8761V20.0727H13.1376H13.3329V18.8761V17.6796H13.1376H12.9422V18.8761ZM34.6754 18.8761V20.0727H34.8952H35.115V18.8761V17.6796H34.8952H34.6754V18.8761ZM57.19 18.8761V20.0727H57.3854H57.5807V18.8761V17.6796H57.3854H57.19V18.8761ZM78.9232 18.8761V20.0727H79.1185H79.3139V18.8761V17.6796H79.1185H78.9232V18.8761ZM100.412 18.8761V20.0727H100.608H100.803V18.8761V17.6796H100.608H100.412V18.8761ZM122.048 18.8761V20.0727H122.243H122.438V18.8761V17.6796H122.243H122.048V18.8761ZM143.634 18.8761V20.0727H143.83H144.025V18.8761V17.6796H143.83H143.634V18.8761ZM165.514 18.8761V20.0727H165.709H165.905V18.8761V17.6796H165.709H165.514V18.8761ZM187.247 18.8761V20.0727H187.443H187.638V18.8761V17.6796H187.443H187.247V18.8761ZM12.9422 23.7111V24.9077H13.1376H13.3329V23.7111V22.5146H13.1376H12.9422V23.7111ZM34.6754 23.7139V24.9133L34.883 24.8983L35.0905 24.8833L35.1036 23.6989L35.1167 22.5146H34.8961H34.6754V23.7139ZM57.19 23.7111V24.9077H57.3854H57.5807V23.7111V22.5146H57.3854H57.19V23.7111ZM78.9345 23.6989L78.9476 24.8833L79.1307 24.8984L79.3139 24.9136V23.7141V22.5146H79.1177H78.9214L78.9345 23.6989ZM100.412 23.7111V24.9077H100.608H100.803V23.7111V22.5146H100.608H100.412V23.7111ZM122.048 23.7111V24.9077H122.243H122.438V23.7111V22.5146H122.243H122.048V23.7111ZM143.634 23.7111V24.9077H143.83H144.025V23.7111V22.5146H143.83H143.634V23.7111ZM165.514 23.7111V24.9077H165.709H165.905V23.7111V22.5146H165.709H165.514V23.7111ZM187.247 23.7111V24.9077H187.443H187.638V23.7111V22.5146H187.443H187.247V23.7111ZM12.9422 28.5217V29.7427H13.1376H13.3329V28.5217V27.3008H13.1376H12.9422V28.5217ZM34.6985 27.3599C34.6848 27.3956 34.6795 27.9409 34.6867 28.5716L34.6998 29.7183H34.8952H35.0905V28.5217V27.3252L34.907 27.31C34.7876 27.3001 34.7147 27.3176 34.6985 27.3599ZM57.2226 27.3334C57.2047 27.3512 57.19 27.9007 57.19 28.5543V29.7427H57.3854H57.5807V28.5217V27.3008H57.4179C57.3284 27.3008 57.2405 27.3154 57.2226 27.3334ZM78.9452 27.3629C78.932 27.397 78.9272 27.9409 78.9345 28.5716L78.9476 29.7183L79.1307 29.7334L79.3139 29.7486V28.5247V27.3008H79.1414C79.0466 27.3008 78.9582 27.3287 78.9452 27.3629ZM100.445 27.3334C100.427 27.3512 100.412 27.9007 100.412 28.5543V29.7427H100.608H100.803V28.5217V27.3008H100.64C100.551 27.3008 100.463 27.3154 100.445 27.3334ZM122.048 28.5188V29.7427H122.244H122.44L122.427 28.534L122.414 27.3252L122.231 27.3101L122.048 27.2949V28.5188ZM143.667 27.3334C143.649 27.3512 143.634 27.9007 143.634 28.5543V29.7427H143.83H144.025V28.5217V27.3008H143.862C143.773 27.3008 143.685 27.3154 143.667 27.3334ZM165.514 28.5217V29.7427H165.709H165.905V28.5217V27.3008H165.709H165.514V28.5217ZM187.28 27.3334C187.262 27.3512 187.247 27.9007 187.247 28.5543V29.7427H187.443H187.638V28.5217V27.3008H187.475C187.386 27.3008 187.298 27.3154 187.28 27.3334ZM12.9422 33.3568V34.5777H13.1376H13.3329V33.3568V32.1358H13.1376H12.9422V33.3568ZM34.7103 32.166C34.6911 32.1852 34.6754 32.439 34.6754 32.73V33.2591H34.2114H33.7475V33.4544V33.6498H34.2096H34.6717L34.6858 34.1016L34.6998 34.5533H34.8952H35.0905L35.1046 34.1016L35.1186 33.6498H35.6296H36.1406V33.4544V33.2591H35.6294H35.1182L35.1044 32.7097L35.0905 32.1602L34.9178 32.1457C34.8229 32.1377 34.7295 32.1468 34.7103 32.166ZM57.19 32.6958V33.2558L56.665 33.2696L56.14 33.2835L56.1248 33.4667L56.1096 33.6498H56.6498H57.19V34.1138V34.5777H57.3854H57.5807V34.1138V33.6498H58.0691H58.5575V33.4544V33.2591H58.0691H57.5807V32.6974V32.1358H57.3854H57.19V32.6958ZM78.9452 32.1979C78.932 32.232 78.9272 32.7759 78.9345 33.4066L78.9476 34.5533L79.1307 34.5685L79.3139 34.5836V33.3597V32.1358H79.1414C79.0466 32.1358 78.9582 32.1637 78.9452 32.1979ZM100.445 32.1684C100.427 32.1863 100.412 32.439 100.412 32.73V33.2591H99.9726H99.5331V33.4544V33.6498H99.9726H100.412V34.1138V34.5777H100.608H100.803V34.1138V33.6498H101.365H101.926V33.4544V33.2591H101.365H100.803V32.6974V32.1358H100.64C100.551 32.1358 100.463 32.1505 100.445 32.1684ZM122.048 33.3568V34.5777H122.243H122.438V33.3568V32.1358H122.243H122.048V33.3568ZM143.634 32.6974V33.2591H143.268H142.902V33.4544V33.6498H143.268H143.634V34.1138V34.5777H143.83H144.025V34.1138V33.6498H144.687H145.35L145.334 33.4667L145.319 33.2835L144.672 33.2699L144.025 33.2563V32.696V32.1358H143.83H143.634V32.6974ZM165.514 33.3568V34.5777H165.709H165.905V33.3568V32.1358H165.709H165.514V33.3568ZM187.28 32.1684C187.262 32.1863 187.247 32.439 187.247 32.73V33.2591H186.759H186.27V33.4544V33.6498H186.759H187.247V34.1138V34.5777H187.443H187.638V34.1138V33.6498H188.175H188.712V33.4544V33.2591H188.175H187.638V32.6974V32.1358H187.475C187.386 32.1358 187.298 32.1505 187.28 32.1684ZM0 33.4544V33.6498H1.19655H2.39309V33.4544V33.2591H1.19655H0V33.4544ZM4.83502 33.4544V33.6498H6.03157H7.22811V33.4544V33.2591H6.03157H4.83502V33.4544ZM9.62121 33.4536V33.6498H10.8451H12.069L12.0539 33.4667L12.0387 33.2835L10.83 33.2705L9.62121 33.2574V33.4536ZM14.4562 33.4544V33.6498H15.6528H16.8493V33.4544V33.2591H15.6528H14.4562V33.4544ZM19.2912 33.4544V33.6498H20.4878H21.6843V33.4544V33.2591H20.4878H19.2912V33.4544ZM24.11 33.2917C24.0921 33.3095 24.0774 33.3974 24.0774 33.487V33.6498H25.2984H26.5194V33.4544V33.2591H25.331C24.6773 33.2591 24.1279 33.2737 24.11 33.2917ZM28.9125 33.4536V33.6498H30.1363H31.3603L31.3451 33.4667L31.33 33.2835L30.1212 33.2705L28.9125 33.2574V33.4536ZM38.5662 33.2917C38.5483 33.3095 38.5337 33.3974 38.5337 33.487V33.6498H39.7546H40.9756V33.4544V33.2591H39.7872C39.1335 33.2591 38.5841 33.2737 38.5662 33.2917ZM43.3687 33.4536V33.6498H44.5926H45.8165L45.8013 33.4667L45.7862 33.2835L44.5774 33.2705L43.3687 33.2574V33.4536ZM46.592 33.4536V33.6498H47.7671H48.9422L48.927 33.4667L48.9119 33.2835L47.7519 33.2704L46.592 33.2573V33.4536ZM51.3294 33.4544V33.6498H52.5259H53.7225V33.4544V33.2591H52.5259H51.3294V33.4544ZM60.9506 33.4536V33.6498H62.1745H63.3984L63.3832 33.4667L63.3681 33.2835L62.1593 33.2705L60.9506 33.2574V33.4536ZM65.7856 33.4544V33.6498H66.9821H68.1787V33.4544V33.2591H66.9821H65.7856V33.4544ZM70.6044 33.2917C70.5864 33.3095 70.5718 33.3974 70.5718 33.487V33.6498H71.7927H73.0137V33.4544V33.2591H71.8253C71.1717 33.2591 70.6222 33.2737 70.6044 33.2917ZM75.4068 33.4544V33.6498H76.6278H77.8487V33.4544V33.2591H76.6278H75.4068V33.4544ZM80.2418 33.4544V33.6498H81.4384H82.6349V33.4544V33.2591H81.4384H80.2418V33.4544ZM85.0606 33.2917C85.0427 33.3095 85.028 33.3974 85.028 33.487V33.6498H86.249H87.4699V33.4544V33.2591H86.2816C85.6279 33.2591 85.0785 33.2737 85.0606 33.2917ZM89.8956 33.2917C89.8777 33.3095 89.863 33.3974 89.863 33.487V33.6498H91.084H92.305V33.4544V33.2591H91.1166C90.4629 33.2591 89.9135 33.2737 89.8956 33.2917ZM94.6981 33.4536V33.6498H95.922H97.1459L97.1307 33.4667L97.1156 33.2835L95.9068 33.2705L94.6981 33.2574V33.4536ZM104.368 33.4544V33.6498H105.565H106.761V33.4544V33.2591H105.565H104.368V33.4544ZM109.154 33.4544V33.6498H110.375H111.596V33.4544V33.2591H110.375H109.154V33.4544ZM113.989 33.4544V33.6498H115.186H116.382V33.4544V33.2591H115.186H113.989V33.4544ZM118.824 33.4544V33.6498H120.021H121.217V33.4544V33.2591H120.021H118.824V33.4544ZM123.643 33.2917C123.625 33.3095 123.611 33.3974 123.611 33.487V33.6498H124.831H126.052V33.4544V33.2591H124.864C124.21 33.2591 123.661 33.2737 123.643 33.2917ZM128.446 33.4536V33.6498H129.669H130.893L130.878 33.4667L130.863 33.2835L129.654 33.2705L128.446 33.2574V33.4536ZM133.281 33.4544V33.6498H134.477H135.674V33.4544V33.2591H134.477H133.281V33.4544ZM138.067 33.4544V33.6498H139.288H140.509V33.4544V33.2591H139.288H138.067V33.4544ZM147.737 33.4544V33.6498H148.933H150.13V33.4544V33.2591H148.933H147.737V33.4544ZM152.572 33.4544V33.6498H153.768H154.965V33.4544V33.2591H153.768H152.572V33.4544ZM157.358 33.4544V33.6498H158.579H159.8V33.4544V33.2591H158.579H157.358V33.4544ZM162.193 33.4544V33.6498H163.39H164.586V33.4544V33.2591H163.39H162.193V33.4544ZM167.012 33.2917C166.994 33.3095 166.979 33.3974 166.979 33.487V33.6498H168.2H169.421V33.4544V33.2591H168.233C167.579 33.2591 167.03 33.2737 167.012 33.2917ZM171.848 33.2908C171.829 33.3092 171.814 33.3974 171.814 33.487V33.6498H173.038H174.262L174.247 33.4667L174.232 33.2835L173.056 33.2705C172.41 33.2633 171.866 33.2724 171.848 33.2908ZM176.649 33.4536V33.6498H177.873H179.097L179.082 33.4667L179.067 33.2835L177.858 33.2705L176.649 33.2574V33.4536ZM181.484 33.4544V33.6498H182.681H183.877V33.4544V33.2591H182.681H181.484V33.4544ZM191.105 33.4536V33.6498H192.329H193.553L193.538 33.4667L193.523 33.2835L192.314 33.2705L191.105 33.2574V33.4536ZM195.94 33.4544V33.6498H197.137H198.334V33.4544V33.2591H197.137H195.94V33.4544ZM199.164 33.4525V33.6498H199.582H200L199.985 33.4667L199.97 33.2835L199.567 33.2693L199.164 33.2551V33.4525ZM12.9422 38.1674V39.3639H13.1376H13.3329V38.1674V36.9708H13.1376H12.9422V38.1674ZM34.6754 38.1674V39.3639H34.8952H35.115V38.1674V36.9708H34.8952H34.6754V38.1674ZM57.19 38.1674V39.3639H57.3854H57.5807V38.1674V36.9708H57.3854H57.19V38.1674ZM78.9232 38.1674V39.3639H79.1185H79.3139V38.1674V36.9708H79.1185H78.9232V38.1674ZM100.412 38.1674V39.3639H100.608H100.803V38.1674V36.9708H100.608H100.412V38.1674ZM122.048 38.1674V39.3639H122.243H122.438V38.1674V36.9708H122.243H122.048V38.1674ZM143.634 38.1674V39.3639H143.83H144.025V38.1674V36.9708H143.83H143.634V38.1674ZM165.514 38.1674V39.3639H165.709H165.905V38.1674V36.9708H165.709H165.514V38.1674ZM187.247 38.1674V39.3639H187.443H187.638V38.1674V36.9708H187.443H187.247V38.1674ZM12.9422 43.0024V44.1989H13.1376H13.3329V43.0024V41.8058H13.1376H12.9422V43.0024ZM34.6754 43.0024V44.1989H34.8952H35.115V43.0024V41.8058H34.8952H34.6754V43.0024ZM57.19 43.0024V44.1989H57.3854H57.5807V43.0024V41.8058H57.3854H57.19V43.0024ZM78.9232 43.0024V44.1989H79.1185H79.3139V43.0024V41.8058H79.1185H78.9232V43.0024ZM100.412 43.0024V44.1989H100.608H100.803V43.0024V41.8058H100.608H100.412V43.0024ZM122.048 43.0024V44.1989H122.243H122.438V43.0024V41.8058H122.243H122.048V43.0024ZM143.634 43.0024V44.1989H143.83H144.025V43.0024V41.8058H143.83H143.634V43.0024ZM165.514 43.0024V44.1989H165.709H165.905V43.0024V41.8058H165.709H165.514V43.0024ZM187.247 43.0024V44.1989H187.443H187.638V43.0024V41.8058H187.443H187.247V43.0024ZM12.9422 47.813V49.034H13.1376H13.3329V47.813V46.592H13.1376H12.9422V47.813ZM34.6985 46.6511C34.6848 46.6869 34.6795 47.2322 34.6867 47.8629L34.6998 49.0095H34.8952H35.0905V47.813V46.6164L34.907 46.6013C34.7876 46.5914 34.7147 46.6088 34.6985 46.6511ZM57.19 47.813V49.034H57.3854H57.5807V47.813V46.592H57.3854H57.19V47.813ZM78.9452 46.6541C78.932 46.6882 78.9272 47.2322 78.9345 47.8629L78.9476 49.0095L79.1307 49.0247L79.3139 49.0399V47.8159V46.592H79.1414C79.0466 46.592 78.9582 46.62 78.9452 46.6541ZM100.424 47.8008L100.437 49.0095L100.62 49.0247L100.803 49.0399V47.8159V46.592H100.607H100.41L100.424 47.8008ZM122.048 47.813V49.034H122.243H122.438V47.813V46.592H122.243H122.048V47.813ZM143.634 47.813V49.034H143.83H144.025V47.813V46.592H143.83H143.634V47.813ZM165.514 47.813V49.034H165.709H165.905V47.813V46.592H165.709H165.514V47.813ZM187.247 47.813V49.034H187.443H187.638V47.813V46.592H187.443H187.247V47.813ZM12.9422 52.648V53.869H13.1376H13.3329V52.648V51.4271H13.1376H12.9422V52.648ZM34.6985 51.4861C34.6848 51.5219 34.6795 52.0672 34.6867 52.6979L34.6998 53.8446H34.8952H35.0905V52.648V51.4515L34.907 51.4363C34.7876 51.4264 34.7147 51.4438 34.6985 51.4861ZM57.2014 52.6358L57.2144 53.8446L57.3976 53.8597L57.5807 53.8749V52.6509V51.4271H57.3845H57.1883L57.2014 52.6358ZM78.9452 51.4891C78.932 51.5233 78.9272 52.0672 78.9345 52.6979L78.9476 53.8446L79.1307 53.8597L79.3139 53.8749V52.6509V51.4271H79.1414C79.0466 51.4271 78.9582 51.455 78.9452 51.4891ZM100.424 52.6358L100.437 53.8446L100.62 53.8597L100.803 53.8749V52.6509V51.4271H100.607H100.41L100.424 52.6358ZM122.048 52.6509V53.8749L122.231 53.8597L122.414 53.8446L122.427 52.6358L122.44 51.4271H122.244H122.048V52.6509ZM143.646 52.6358L143.659 53.8446L143.842 53.8597L144.025 53.8749V52.6509V51.4271H143.829H143.633L143.646 52.6358ZM165.514 52.648V53.869H165.709H165.905V52.648V51.4271H165.709H165.514V52.648ZM187.259 52.6358L187.272 53.8446L187.455 53.8597L187.638 53.8749V52.6509V51.4271H187.442H187.246L187.259 52.6358ZM0 54.9434V55.1388H1.19655H2.39309V54.9434V54.7481H1.19655H0V54.9434ZM4.83502 54.9434V55.1388H6.03157H7.22811V54.9434V54.7481H6.03157H4.83502V54.9434ZM9.62121 54.9426V55.1388H10.8451H12.069L12.0539 54.9556L12.0387 54.7725L10.83 54.7595L9.62121 54.7464V54.9426ZM14.4562 54.9434V55.1388H15.6528H16.8493V54.9434V54.7481H15.6528H14.4562V54.9434ZM19.2912 54.9434V55.1388H20.4878H21.6843V54.9434V54.7481H20.4878H19.2912V54.9434ZM24.11 54.7807C24.0921 54.7985 24.0774 54.8864 24.0774 54.976V55.1388H25.2984H26.5194V54.9434V54.7481H25.331C24.6773 54.7481 24.1279 54.7627 24.11 54.7807ZM28.9125 54.9434V55.1405L30.1212 55.1274L31.33 55.1144V54.9434V54.7725L30.1212 54.7595L28.9125 54.7464V54.9434ZM33.7475 54.9434V55.1388H34.944H36.1406V54.9434V54.7481H34.944H33.7475V54.9434ZM38.5662 54.7807C38.5483 54.7985 38.5337 54.8864 38.5337 54.976V55.1388H39.7546H40.9756V54.9434V54.7481H39.7872C39.1335 54.7481 38.5841 54.7627 38.5662 54.7807ZM43.3687 54.9426V55.1388H44.5926H45.8165L45.8013 54.9556L45.7862 54.7725L44.5774 54.7595L43.3687 54.7464V54.9426ZM46.592 54.9426V55.1388H47.7671H48.9422L48.927 54.9556L48.9119 54.7725L47.7519 54.7594L46.592 54.7463V54.9426ZM51.3294 54.9434V55.1388H52.5259H53.7225V54.9434V54.7481H52.5259H51.3294V54.9434ZM56.1481 54.7807C56.1302 54.7985 56.1156 54.8864 56.1156 54.976V55.1388H57.3365H58.5575V54.9434V54.7481H57.3691C56.7154 54.7481 56.166 54.7627 56.1481 54.7807ZM60.9506 54.9426V55.1388H62.1745H63.3984L63.3832 54.9556L63.3681 54.7725L62.1593 54.7595L60.9506 54.7464V54.9426ZM65.7856 54.9434V55.1388H66.9821H68.1787V54.9434V54.7481H66.9821H65.7856V54.9434ZM70.6044 54.7807C70.5864 54.7985 70.5718 54.8864 70.5718 54.976V55.1388H71.7927H73.0137V54.9434V54.7481H71.8253C71.1717 54.7481 70.6222 54.7627 70.6044 54.7807ZM75.4068 54.9434V55.1388H76.6278H77.8487V54.9434V54.7481H76.6278H75.4068V54.9434ZM80.2418 54.9434V55.1388H81.4384H82.6349V54.9434V54.7481H81.4384H80.2418V54.9434ZM85.0471 54.8178C85.0323 54.8561 85.0275 54.9385 85.0364 55.0009L85.0524 55.1144L86.2612 55.1274L87.4699 55.1405V54.9443V54.7481H86.2719C85.2791 54.7481 85.0692 54.76 85.0471 54.8178ZM89.8956 54.7807C89.8777 54.7985 89.863 54.8864 89.863 54.976V55.1388H91.084H92.305V54.9434V54.7481H91.1166C90.4629 54.7481 89.9135 54.7627 89.8956 54.7807ZM94.6981 54.9426V55.1388H95.922H97.1459L97.1307 54.9556L97.1156 54.7725L95.9068 54.7595L94.6981 54.7464V54.9426ZM99.5331 54.9434V55.1388H100.73H101.926V54.9434V54.7481H100.73H99.5331V54.9434ZM104.368 54.9434V55.1388H105.565H106.761V54.9434V54.7481H105.565H104.368V54.9434ZM109.154 54.9434V55.1388H110.375H111.596V54.9434V54.7481H110.375H109.154V54.9434ZM113.989 54.9434V55.1388H115.186H116.382V54.9434V54.7481H115.186H113.989V54.9434ZM118.824 54.9434V55.1388H120.021H121.217V54.9434V54.7481H120.021H118.824V54.9434ZM123.643 54.7807C123.625 54.7985 123.611 54.8864 123.611 54.976V55.1388H124.831H126.052V54.9434V54.7481H124.864C124.21 54.7481 123.661 54.7627 123.643 54.7807ZM128.446 54.9426V55.1388H129.669H130.893L130.878 54.9556L130.863 54.7725L129.654 54.7595L128.446 54.7464V54.9426ZM133.281 54.9434V55.1388H134.477H135.674V54.9434V54.7481H134.477H133.281V54.9434ZM138.067 54.9434V55.1388H139.288H140.509V54.9434V54.7481H139.288H138.067V54.9434ZM142.902 54.9434V55.1405L144.111 55.1274L145.319 55.1144V54.9434V54.7725L144.111 54.7595L142.902 54.7464V54.9434ZM147.737 54.9434V55.1388H148.933H150.13V54.9434V54.7481H148.933H147.737V54.9434ZM152.572 54.9434V55.1388H153.768H154.965V54.9434V54.7481H153.768H152.572V54.9434ZM157.358 54.9434V55.1388H158.579H159.8V54.9434V54.7481H158.579H157.358V54.9434ZM162.193 54.9434V55.1388H163.39H164.586V54.9434V54.7481H163.39H162.193V54.9434ZM167.012 54.7807C166.994 54.7985 166.979 54.8864 166.979 54.976V55.1388H168.2H169.421V54.9434V54.7481H168.233C167.579 54.7481 167.03 54.7627 167.012 54.7807ZM171.848 54.7798C171.829 54.7982 171.814 54.8864 171.814 54.976V55.1388H173.038H174.262L174.247 54.9556L174.232 54.7725L173.056 54.7595C172.41 54.7523 171.866 54.7614 171.848 54.7798ZM176.649 54.9434V55.1405L177.858 55.1274L179.067 55.1144V54.9434V54.7725L177.858 54.7595L176.649 54.7464V54.9434ZM181.484 54.9434V55.1388H182.681H183.877V54.9434V54.7481H182.681H181.484V54.9434ZM186.27 54.9434V55.1388H187.491H188.712V54.9434V54.7481H187.491H186.27V54.9434ZM191.105 54.9426V55.1388H192.329H193.553L193.538 54.9556L193.523 54.7725L192.314 54.7595L191.105 54.7464V54.9426ZM195.94 54.9434V55.1388H197.137H198.334V54.9434V54.7481H197.137H195.94V54.9434ZM199.164 54.9415V55.1388H199.582H200L199.985 54.9556L199.97 54.7725L199.567 54.7583L199.164 54.7441V54.9415ZM12.9422 57.4586V58.6552H13.1376H13.3329V57.4586V56.2621H13.1376H12.9422V57.4586ZM34.6754 57.4586V58.6552H34.8952H35.115V57.4586V56.2621H34.8952H34.6754V57.4586ZM57.19 57.4586V58.6552H57.3854H57.5807V57.4586V56.2621H57.3854H57.19V57.4586ZM78.9232 57.4586V58.6552H79.1185H79.3139V57.4586V56.2621H79.1185H78.9232V57.4586ZM100.412 57.4586V58.6552H100.608H100.803V57.4586V56.2621H100.608H100.412V57.4586ZM122.048 57.4586V58.6552H122.243H122.438V57.4586V56.2621H122.243H122.048V57.4586ZM143.634 57.4586V58.6552H143.83H144.025V57.4586V56.2621H143.83H143.634V57.4586ZM165.514 57.4586V58.6552H165.709H165.905V57.4586V56.2621H165.709H165.514V57.4586ZM187.247 57.4586V58.6552H187.443H187.638V57.4586V56.2621H187.443H187.247V57.4586ZM12.9748 61.0808C12.9569 61.0987 12.9422 61.6481 12.9422 62.3018V63.4902H13.1376H13.3329V62.2692V61.0483H13.1702C13.0806 61.0483 12.9927 61.0629 12.9748 61.0808ZM34.7103 61.0785C34.6911 61.0977 34.6754 61.6481 34.6754 62.3018V63.4902H34.896H35.1167L35.1036 62.2814L35.0905 61.0727L34.9178 61.0581C34.8229 61.0502 34.7295 61.0593 34.7103 61.0785ZM57.2226 61.0808C57.2047 61.0987 57.19 61.6481 57.19 62.3018V63.4902H57.3854H57.5807V62.2692V61.0483H57.4179C57.3284 61.0483 57.2405 61.0629 57.2226 61.0808ZM78.9558 61.0808C78.9378 61.0987 78.9232 61.6481 78.9232 62.3018V63.4902H79.1185H79.3139V62.2692V61.0483H79.1511C79.0615 61.0483 78.9736 61.0629 78.9558 61.0808ZM100.447 61.0785C100.428 61.0977 100.412 61.6481 100.412 62.3018V63.4902H100.608H100.805L100.792 62.2814L100.778 61.0727L100.63 61.0582C100.549 61.0502 100.466 61.0593 100.447 61.0785ZM122.048 62.2663V63.4902H122.244H122.44L122.427 62.2814L122.414 61.0727L122.231 61.0575L122.048 61.0423V62.2663ZM143.667 61.0808C143.649 61.0987 143.634 61.6481 143.634 62.3018V63.4902H143.83H144.025V62.2692V61.0483H143.862C143.773 61.0483 143.685 61.0629 143.667 61.0808ZM165.514 62.2663V63.4902H165.71H165.906L165.893 62.2814L165.88 61.0727L165.697 61.0575L165.514 61.0423V62.2663ZM187.28 61.0808C187.262 61.0987 187.247 61.6481 187.247 62.3018V63.4902H187.443H187.638V62.2692V61.0483H187.475C187.386 61.0483 187.298 61.0629 187.28 61.0808ZM12.9422 67.1042V68.3252H13.1376H13.3329V67.1042V65.8833H13.1376H12.9422V67.1042ZM34.6867 67.0892L34.6998 68.3008H34.8952H35.0905V67.1042V65.9077L34.8821 65.8927L34.6737 65.8776L34.6867 67.0892ZM57.2014 67.092L57.2144 68.3008L57.3976 68.3159L57.5807 68.3311V67.1072V65.8833H57.3845H57.1883L57.2014 67.092ZM78.9452 65.9454C78.932 65.9795 78.9272 66.5234 78.9345 67.1541L78.9476 68.3008L79.1307 68.3159L79.3139 68.3311V67.1072V65.8833H79.1414C79.0466 65.8833 78.9582 65.9112 78.9452 65.9454ZM100.424 67.092L100.437 68.3008L100.62 68.3159L100.803 68.3311V67.1072V65.8833H100.607H100.41L100.424 67.092ZM122.048 67.1072V68.3311L122.231 68.3159L122.414 68.3008L122.427 67.092L122.44 65.8833H122.244H122.048V67.1072ZM143.646 67.092L143.659 68.3008L143.842 68.3159L144.025 68.3311V67.1072V65.8833H143.829H143.633L143.646 67.092ZM165.514 67.1042V68.3252H165.709H165.905V67.1042V65.8833H165.709H165.514V67.1042ZM187.259 67.092L187.272 68.3008L187.455 68.3159L187.638 68.3311V67.1072V65.8833H187.442H187.246L187.259 67.092ZM12.9422 71.9148V73.1114H13.1376H13.3329V71.9148V70.7183H13.1376H12.9422V71.9148ZM34.6754 71.9121V73.1114H34.8961H35.1167L35.1036 71.9271L35.0905 70.7427L34.883 70.7277L34.6754 70.7127V71.9121ZM57.19 71.9148V73.1114H57.3854H57.5807V71.9148V70.7183H57.3854H57.19V71.9148ZM78.9558 70.7509C78.9378 70.7687 78.9232 71.3072 78.9232 71.9474V73.1114H79.1185H79.3139V71.9148V70.7183H79.1511C79.0615 70.7183 78.9736 70.733 78.9558 70.7509ZM100.412 71.9148V73.1114H100.608H100.803V71.9148V70.7183H100.608H100.412V71.9148ZM122.048 71.9148V73.1114H122.243H122.438V71.9148V70.7183H122.243H122.048V71.9148ZM143.634 71.9148V73.1114H143.83H144.025V71.9148V70.7183H143.83H143.634V71.9148ZM165.514 71.9148V73.1114H165.709H165.905V71.9148V70.7183H165.709H165.514V71.9148ZM187.247 71.9148V73.1114H187.443H187.638V71.9148V70.7183H187.443H187.247V71.9148ZM12.9422 76.7499V77.9464H13.1376H13.3329V76.7499V75.5533H13.1376H12.9422V76.7499ZM34.6754 76.0173V76.4813H34.2114H33.7475V76.6766V76.872H34.2114H34.6754V77.412V77.952L34.883 77.937L35.0905 77.922L35.1044 77.397L35.1183 76.872H35.6294H36.1406V76.6766V76.4813H35.6278H35.115V76.0173V75.5533H34.8952H34.6754V76.0173ZM57.19 76.0173V76.4813H56.6528H56.1156V76.6766V76.872H56.6528H57.19V77.4092V77.9464H57.3854H57.5807V77.4092V76.872H58.0691H58.5575V76.6766V76.4813H58.0691H57.5807V76.0173V75.5533H57.3854H57.19V76.0173ZM78.9345 76.7377L78.9476 77.922L79.1307 77.9371L79.3139 77.9523V76.7528V75.5533H79.1177H78.9214L78.9345 76.7377ZM100.412 76.0173V76.4813H99.9726H99.5331V76.6766V76.872H99.9726H100.412V77.4092V77.9464H100.606H100.8L100.813 77.4214L100.827 76.8964L101.377 76.8826L101.926 76.8687V76.675V76.4813H101.365H100.803V76.0173V75.5533H100.608H100.412V76.0173ZM122.048 76.7499V77.9464H122.243H122.438V76.7499V75.5533H122.243H122.048V76.7499ZM143.634 76.0173V76.4813H143.268H142.902V76.6766V76.872H143.268H143.634V77.4092V77.9464H143.828H144.022L144.036 77.4214L144.049 76.8964L144.699 76.8828L145.349 76.8691L145.334 76.6874L145.319 76.5057L144.672 76.492L144.025 76.4784V76.0159V75.5533H143.83H143.634V76.0173ZM165.514 76.7499V77.9464H165.709H165.905V76.7499V75.5533H165.709H165.514V76.7499ZM187.247 76.0173V76.4813H186.759H186.27V76.6766V76.872H186.759H187.247V77.4092V77.9464H187.441H187.635L187.648 77.4214L187.662 76.8964L188.187 76.8825L188.712 76.8686V76.6749V76.4813H188.175H187.638V76.0173V75.5533H187.443H187.247V76.0173ZM0 76.6766V76.872H1.19655H2.39309V76.6766V76.4813H1.19655H0V76.6766ZM4.83502 76.6766V76.872H6.03157H7.22811V76.6766V76.4813H6.03157H4.83502V76.6766ZM9.62121 76.6766V76.872H10.8422H12.0631V76.6766V76.4813H10.8422H9.62121V76.6766ZM14.4562 76.6766V76.872H15.6528H16.8493V76.6766V76.4813H15.6528H14.4562V76.6766ZM19.2912 76.6766V76.872H20.4878H21.6843V76.6766V76.4813H20.4878H19.2912V76.6766ZM24.0774 76.6766V76.872H25.2984H26.5194V76.6766V76.4813H25.2984H24.0774V76.6766ZM28.9125 76.6758V76.872H30.1363H31.3603L31.3451 76.6888L31.33 76.5057L30.1212 76.4926L28.9125 76.4795V76.6758ZM38.5337 76.6766V76.872H39.7546H40.9756V76.6766V76.4813H39.7546H38.5337V76.6766ZM43.3687 76.6766V76.872H44.5896H45.8106V76.6766V76.4813H44.5896H43.3687V76.6766ZM46.592 76.6757V76.872H47.7671H48.9422L48.927 76.6888L48.9119 76.5057L47.7519 76.4926L46.592 76.4795V76.6757ZM51.3294 76.6766V76.872H52.5259H53.7225V76.6766V76.4813H52.5259H51.3294V76.6766ZM60.9506 76.6758V76.872H62.1745H63.3984L63.3832 76.6888L63.3681 76.5057L62.1593 76.4926L60.9506 76.4795V76.6758ZM65.7856 76.6766V76.872H66.9821H68.1787V76.6766V76.4813H66.9821H65.7856V76.6766ZM70.6044 76.5138C70.5864 76.5317 70.5718 76.6196 70.5718 76.7092V76.872H71.7927H73.0137V76.6766V76.4813H71.8253C71.1717 76.4813 70.6222 76.4959 70.6044 76.5138ZM75.4068 76.6766V76.872H76.6278H77.8487V76.6766V76.4813H76.6278H75.4068V76.6766ZM80.2418 76.6766V76.872H81.4384H82.6349V76.6766V76.4813H81.4384H80.2418V76.6766ZM85.0606 76.5138C85.0427 76.5317 85.028 76.6196 85.028 76.7092V76.872H86.249H87.4699V76.6766V76.4813H86.2816C85.6279 76.4813 85.0785 76.4959 85.0606 76.5138ZM89.863 76.6766V76.872H91.084H92.305V76.6766V76.4813H91.084H89.863V76.6766ZM94.6981 76.6766V76.872H95.919H97.14V76.6766V76.4813H95.919H94.6981V76.6766ZM104.368 76.6766V76.872H105.565H106.761V76.6766V76.4813H105.565H104.368V76.6766ZM109.154 76.6766V76.872H110.375H111.596V76.6766V76.4813H110.375H109.154V76.6766ZM113.989 76.6766V76.872H115.186H116.382V76.6766V76.4813H115.186H113.989V76.6766ZM118.824 76.6766V76.872H120.021H121.217V76.6766V76.4813H120.021H118.824V76.6766ZM123.611 76.6766V76.872H124.831H126.052V76.6766V76.4813H124.831H123.611V76.6766ZM128.446 76.6766V76.872H129.666H130.887V76.6766V76.4813H129.666H128.446V76.6766ZM133.281 76.6766V76.872H134.477H135.674V76.6766V76.4813H134.477H133.281V76.6766ZM138.067 76.6766V76.872H139.288H140.509V76.6766V76.4813H139.288H138.067V76.6766ZM147.737 76.6766V76.872H148.933H150.13V76.6766V76.4813H148.933H147.737V76.6766ZM152.572 76.6766V76.872H153.768H154.965V76.6766V76.4813H153.768H152.572V76.6766ZM157.358 76.6766V76.872H158.579H159.8V76.6766V76.4813H158.579H157.358V76.6766ZM162.193 76.6766V76.872H163.39H164.586V76.6766V76.4813H163.39H162.193V76.6766ZM167.012 76.5138C166.994 76.5317 166.979 76.6196 166.979 76.7092V76.872H168.2H169.421V76.6766V76.4813H168.233C167.579 76.4813 167.03 76.4959 167.012 76.5138ZM171.814 76.6766V76.872H173.035H174.256V76.6766V76.4813H173.035H171.814V76.6766ZM176.649 76.6758V76.872H177.873H179.097L179.082 76.6888L179.067 76.5057L177.858 76.4926L176.649 76.4795V76.6758ZM181.484 76.6766V76.872H182.681H183.877V76.6766V76.4813H182.681H181.484V76.6766ZM191.105 76.6766V76.872H192.326H193.547V76.6766V76.4813H192.326H191.105V76.6766ZM195.94 76.6766V76.872H197.137H198.334V76.6766V76.4813H197.137H195.94V76.6766ZM199.164 76.6747V76.872H199.582H200L199.985 76.6888L199.97 76.5057L199.567 76.4915L199.164 76.4773V76.6747ZM12.9422 81.5605V82.7814H13.1376H13.3329V81.5605V80.3395H13.1376H12.9422V81.5605ZM34.7103 80.3697C34.6911 80.3889 34.6754 80.9407 34.6754 81.5958V82.7871L34.883 82.772L35.0905 82.757V81.5605V80.3639L34.9178 80.3494C34.8229 80.3414 34.7295 80.3505 34.7103 80.3697ZM57.2226 80.3721C57.2047 80.39 57.19 80.9394 57.19 81.593V82.7814H57.3854H57.5807V81.5605V80.3395H57.4179C57.3284 80.3395 57.2405 80.3542 57.2226 80.3721ZM78.9452 80.4016C78.932 80.4357 78.9272 80.9796 78.9345 81.6103L78.9476 82.757L79.1307 82.7722L79.3139 82.7873V81.5634V80.3395H79.1414C79.0466 80.3395 78.9582 80.3674 78.9452 80.4016ZM100.445 80.3721C100.427 80.39 100.412 80.9394 100.412 81.593V82.7814H100.608H100.803V81.5605V80.3395H100.64C100.551 80.3395 100.463 80.3542 100.445 80.3721ZM122.048 81.5575V82.7814H122.244H122.44L122.427 81.5727L122.414 80.3639L122.231 80.3488L122.048 80.3336V81.5575ZM143.634 81.5605V82.7814H143.83H144.025V81.5605V80.3395H143.83H143.634V81.5605ZM165.514 81.5605V82.7814H165.709H165.905V81.5605V80.3395H165.709H165.514V81.5605ZM187.28 80.3721C187.262 80.39 187.247 80.9394 187.247 81.593V82.7814H187.443H187.638V81.5605V80.3395H187.475C187.386 80.3395 187.298 80.3542 187.28 80.3721ZM12.9536 86.3833L12.9666 87.592L13.1498 87.6072L13.3329 87.6224V86.3984V85.1745H13.1368H12.9405L12.9536 86.3833ZM34.6868 86.3833L34.6998 87.592H34.8952H35.0905L35.1036 86.3833L35.1167 85.1745H34.8952H34.6737L34.6868 86.3833ZM57.2014 86.3833L57.2144 87.592L57.3976 87.6072L57.5807 87.6224V86.3984V85.1745H57.3845H57.1883L57.2014 86.3833ZM78.9346 86.3833L78.9476 87.592L79.1307 87.6072L79.3139 87.6224V86.3984V85.1745H79.1177H78.9215L78.9346 86.3833ZM100.424 86.3833L100.437 87.592H100.608H100.778L100.792 86.3833L100.805 85.1745H100.608H100.41L100.424 86.3833ZM122.048 86.3984V87.6224L122.231 87.6072L122.414 87.592L122.427 86.3833L122.44 85.1745H122.244H122.048V86.3984ZM143.646 86.3833L143.659 87.592L143.842 87.6072L144.025 87.6224V86.3984V85.1745H143.829H143.633L143.646 86.3833ZM165.514 86.3984V87.6224L165.697 87.6072L165.88 87.592L165.893 86.3833L165.906 85.1745H165.71H165.514V86.3984ZM187.259 86.3833L187.272 87.592L187.455 87.6072L187.638 87.6224V86.3984V85.1745H187.442H187.246L187.259 86.3833ZM12.9422 89.4967V90.6933H13.1376H13.3329V89.4967V88.3002H13.1376H12.9422V89.4967ZM34.6754 89.4967V90.6933H34.8952H35.115V89.4967V88.3002H34.8952H34.6754V89.4967ZM57.19 89.4967V90.6933H57.3854H57.5807V89.4967V88.3002H57.3854H57.19V89.4967ZM78.9232 89.4967V90.6933H79.1185H79.3139V89.4967V88.3002H79.1185H78.9232V89.4967ZM100.412 89.4967V90.6933H100.608H100.803V89.4967V88.3002H100.608H100.412V89.4967ZM122.048 89.4967V90.6933H122.243H122.438V89.4967V88.3002H122.243H122.048V89.4967ZM143.634 89.4967V90.6933H143.83H144.025V89.4967V88.3002H143.83H143.634V89.4967ZM165.514 89.4967V90.6933H165.709H165.905V89.4967V88.3002H165.709H165.514V89.4967ZM187.247 89.4967V90.6933H187.443H187.638V89.4967V88.3002H187.443H187.247V89.4967ZM12.9422 94.3318V95.5283H13.1376H13.3329V94.3318V93.1352H13.1376H12.9422V94.3318ZM34.6754 94.3318V95.5283H34.8952H35.115V94.3318V93.1352H34.8952H34.6754V94.3318ZM57.19 94.3318V95.5283H57.3854H57.5807V94.3318V93.1352H57.3854H57.19V94.3318ZM78.9232 94.3318V95.5283H79.1185H79.3139V94.3318V93.1352H79.1185H78.9232V94.3318ZM100.412 94.3318V95.5283H100.608H100.803V94.3318V93.1352H100.608H100.412V94.3318ZM122.048 94.3318V95.5283H122.243H122.438V94.3318V93.1352H122.243H122.048V94.3318ZM143.634 94.3318V95.5283H143.83H144.025V94.3318V93.1352H143.83H143.634V94.3318ZM165.514 94.3318V95.5283H165.709H165.905V94.3318V93.1352H165.709H165.514V94.3318ZM187.247 94.3318V95.5283H187.443H187.638V94.3318V93.1352H187.443H187.247V94.3318ZM12.9422 99.1424V100.363H13.1376H13.3329V99.1424V97.9214H13.1376H12.9422V99.1424ZM34.7103 97.9516C34.6911 97.9708 34.6754 98.2136 34.6754 98.4912V98.9959H34.2114H33.7475V99.1912V99.3866H34.2097H34.6719L34.6859 99.8627L34.6998 100.339H34.8952H35.0905L35.1045 99.8627L35.1185 99.3866H35.6295H36.1406V99.1912V98.9959H35.6294H35.1183L35.1044 98.4708L35.0905 97.9458L34.9178 97.9313C34.8229 97.9233 34.7295 97.9324 34.7103 97.9516ZM57.19 98.457V98.9925L56.665 99.0064L56.14 99.0203L56.1248 99.2034L56.1096 99.3866H56.6498H57.19V99.8749V100.363H57.3854H57.5807V99.8749V99.3866H58.0691H58.5575V99.1912V98.9959H58.0691H57.5807V98.4586V97.9214H57.3854H57.19V98.457ZM78.9452 97.9835C78.932 98.0176 78.9272 98.5615 78.9345 99.1922L78.9476 100.339L79.1307 100.354L79.3139 100.369V99.1453V97.9214H79.1414C79.0466 97.9214 78.9582 97.9493 78.9452 97.9835ZM100.412 98.4586V98.9959H99.9726H99.5331V99.1912V99.3866H99.9709H100.409L100.423 99.8627L100.437 100.339L100.618 100.354L100.799 100.369L100.813 99.89L100.827 99.411L101.377 99.3972L101.926 99.3833V99.1896V98.9959H101.365H100.803V98.4586V97.9214H100.608H100.412V98.4586ZM122.048 99.1424V100.363H122.243H122.438V99.1424V97.9214H122.243H122.048V99.1424ZM143.634 98.4586V98.9959H143.268H142.902V99.1912V99.3866H143.268H143.634V99.8749V100.363H143.828H144.022L144.036 99.8872L144.049 99.411L144.684 99.3866L145.319 99.3621V99.1912V99.0203L144.672 99.0066L144.025 98.993V98.4572V97.9214H143.83H143.634V98.4586ZM165.514 99.1424V100.363H165.709H165.905V99.1424V97.9214H165.709H165.514V99.1424ZM187.247 98.4586V98.9959H186.759H186.27V99.1912V99.3866H186.757H187.244L187.258 99.8627L187.272 100.339L187.455 100.354L187.638 100.369V99.8779V99.3866H188.175H188.712V99.1912V98.9959H188.175H187.638V98.4586V97.9214H187.443H187.247V98.4586ZM0 99.1912V99.3866H1.19655H2.39309V99.1912V98.9959H1.19655H0V99.1912ZM4.83502 99.1912V99.3866H6.03157H7.22811V99.1912V98.9959H6.03157H4.83502V99.1912ZM9.62121 99.1904V99.3866H10.8451H12.069L12.0539 99.2034L12.0387 99.0203L10.83 99.0072L9.62121 98.9941V99.1904ZM14.4562 99.1912V99.3866H15.6528H16.8493V99.1912V98.9959H15.6528H14.4562V99.1912ZM19.2912 99.1912V99.3866H20.4878H21.6843V99.1912V98.9959H20.4878H19.2912V99.1912ZM24.11 99.0284C24.0921 99.0463 24.0774 99.1342 24.0774 99.2238V99.3866H25.2984H26.5194V99.1912V98.9959H25.331C24.6773 98.9959 24.1279 99.0105 24.11 99.0284ZM28.9125 99.1912V99.3883L30.1212 99.3752L31.33 99.3621V99.1912V99.0203L30.1212 99.0072L28.9125 98.9941V99.1912ZM38.5662 99.0284C38.5483 99.0463 38.5337 99.1342 38.5337 99.2238V99.3866H39.7546H40.9756V99.1912V98.9959H39.7872C39.1335 98.9959 38.5841 99.0105 38.5662 99.0284ZM43.3687 99.1904V99.3866H44.5926H45.8165L45.8013 99.2034L45.7862 99.0203L44.5774 99.0072L43.3687 98.9941V99.1904ZM46.592 99.1903V99.3866H47.7671H48.9422L48.927 99.2034L48.9119 99.0203L47.7519 99.0072L46.592 98.9941V99.1903ZM51.3294 99.1912V99.3866H52.5259H53.7225V99.1912V98.9959H52.5259H51.3294V99.1912ZM60.9506 99.1904V99.3866H62.1745H63.3984L63.3832 99.2034L63.3681 99.0203L62.1593 99.0072L60.9506 98.9941V99.1904ZM65.7856 99.1912V99.3866H66.9821H68.1787V99.1912V98.9959H66.9821H65.7856V99.1912ZM70.6044 99.0284C70.5864 99.0463 70.5718 99.1342 70.5718 99.2238V99.3866H71.7927H73.0137V99.1912V98.9959H71.8253C71.1717 98.9959 70.6222 99.0105 70.6044 99.0284ZM75.4068 99.1912V99.3866H76.6278H77.8487V99.1912V98.9959H76.6278H75.4068V99.1912ZM80.2418 99.1912V99.3866H81.4384H82.6349V99.1912V98.9959H81.4384H80.2418V99.1912ZM85.0471 99.0655C85.0323 99.1039 85.0275 99.1863 85.0364 99.2487L85.0524 99.3621L86.2612 99.3752L87.4699 99.3883V99.192V98.9959H86.2719C85.2791 98.9959 85.0692 99.0078 85.0471 99.0655ZM89.8956 99.0284C89.8777 99.0463 89.863 99.1342 89.863 99.2238V99.3866H91.084H92.305V99.1912V98.9959H91.1166C90.4629 98.9959 89.9135 99.0105 89.8956 99.0284ZM94.6981 99.1904V99.3866H95.922H97.1459L97.1307 99.2034L97.1156 99.0203L95.9068 99.0072L94.6981 98.9941V99.1904ZM104.368 99.1912V99.3866H105.565H106.761V99.1912V98.9959H105.565H104.368V99.1912ZM109.154 99.1912V99.3866H110.375H111.596V99.1912V98.9959H110.375H109.154V99.1912ZM113.989 99.1912V99.3866H115.186H116.382V99.1912V98.9959H115.186H113.989V99.1912ZM118.824 99.1912V99.3866H120.021H121.217V99.1912V98.9959H120.021H118.824V99.1912ZM123.643 99.0284C123.625 99.0463 123.611 99.1342 123.611 99.2238V99.3866H124.831H126.052V99.1912V98.9959H124.864C124.21 98.9959 123.661 99.0105 123.643 99.0284ZM128.446 99.1904V99.3866H129.669H130.893L130.878 99.2034L130.863 99.0203L129.654 99.0072L128.446 98.9941V99.1904ZM133.281 99.1912V99.3866H134.477H135.674V99.1912V98.9959H134.477H133.281V99.1912ZM138.067 99.1912V99.3866H139.288H140.509V99.1912V98.9959H139.288H138.067V99.1912ZM147.737 99.1912V99.3866H148.933H150.13V99.1912V98.9959H148.933H147.737V99.1912ZM152.572 99.1912V99.3866H153.768H154.965V99.1912V98.9959H153.768H152.572V99.1912ZM157.358 99.1912V99.3866H158.579H159.8V99.1912V98.9959H158.579H157.358V99.1912ZM162.193 99.1912V99.3866H163.39H164.586V99.1912V98.9959H163.39H162.193V99.1912ZM167.012 99.0284C166.994 99.0463 166.979 99.1342 166.979 99.2238V99.3866H168.2H169.421V99.1912V98.9959H168.233C167.579 98.9959 167.03 99.0105 167.012 99.0284ZM171.848 99.0275C171.829 99.046 171.814 99.1342 171.814 99.2238V99.3866H173.038H174.262L174.247 99.2034L174.232 99.0203L173.056 99.0072C172.41 99.0001 171.866 99.0092 171.848 99.0275ZM176.649 99.1912V99.3883L177.858 99.3752L179.067 99.3621V99.1912V99.0203L177.858 99.0072L176.649 98.9941V99.1912ZM181.484 99.1912V99.3866H182.681H183.877V99.1912V98.9959H182.681H181.484V99.1912ZM191.105 99.1904V99.3866H192.329H193.553L193.538 99.2034L193.523 99.0203L192.314 99.0072L191.105 98.9941V99.1904ZM195.94 99.1912V99.3866H197.137H198.334V99.1912V98.9959H197.137H195.94V99.1912ZM199.164 99.1892V99.3866H199.582H200L199.985 99.2034L199.97 99.0203L199.567 99.0061L199.164 98.9919V99.1892ZM12.9536 103.965L12.9666 105.174L13.1498 105.189L13.3329 105.204V103.98V102.756H13.1368H12.9405L12.9536 103.965ZM34.6985 102.816C34.6848 102.851 34.6795 103.397 34.6867 104.027L34.6998 105.174H34.8952H35.0905V103.977V102.781L34.907 102.766C34.7876 102.756 34.7147 102.773 34.6985 102.816ZM57.2014 103.965L57.2144 105.174L57.3976 105.189L57.5807 105.204V103.98V102.756H57.3845H57.1883L57.2014 103.965ZM78.9452 102.818C78.932 102.853 78.9272 103.397 78.9345 104.027L78.9476 105.174L79.1307 105.189L79.3139 105.204V103.98V102.756H79.1414C79.0466 102.756 78.9582 102.784 78.9452 102.818ZM100.424 103.965L100.437 105.174L100.62 105.189L100.803 105.204V103.98V102.756H100.607H100.41L100.424 103.965ZM122.048 103.98V105.204L122.231 105.189L122.414 105.174L122.427 103.965L122.44 102.756H122.244H122.048V103.98ZM143.646 103.965L143.659 105.174L143.842 105.189L144.025 105.204V103.98V102.756H143.829H143.633L143.646 103.965ZM165.514 103.98V105.204L165.697 105.189L165.88 105.174L165.893 103.965L165.906 102.756H165.71H165.514V103.98ZM187.259 103.965L187.272 105.174L187.455 105.189L187.638 105.204V103.98V102.756H187.442H187.246L187.259 103.965ZM12.9422 108.788V109.985H13.1376H13.3329V108.788V107.591H13.1376H12.9422V108.788ZM34.6754 108.791V109.99L34.883 109.975L35.0905 109.96L35.1036 108.776L35.1167 107.591H34.8961H34.6754V108.791ZM57.19 108.788V109.985H57.3854H57.5807V108.788V107.591H57.3854H57.19V108.788ZM78.9345 108.776L78.9476 109.96L79.1307 109.975L79.3139 109.99V108.791V107.591H79.1177H78.9214L78.9345 108.776ZM100.412 108.788V109.985H100.608H100.803V108.788V107.591H100.608H100.412V108.788ZM122.048 108.788V109.985H122.243H122.438V108.788V107.591H122.243H122.048V108.788ZM143.634 108.788V109.985H143.83H144.025V108.788V107.591H143.83H143.634V108.788ZM165.514 108.788V109.985H165.709H165.905V108.788V107.591H165.709H165.514V108.788ZM187.247 108.788V109.985H187.443H187.638V108.788V107.591H187.443H187.247V108.788ZM12.9748 112.41C12.9569 112.428 12.9422 112.978 12.9422 113.631V114.82H13.1376H13.3329V113.599V112.378H13.1702C13.0806 112.378 12.9927 112.392 12.9748 112.41ZM34.7103 112.408C34.6911 112.427 34.6754 112.978 34.6754 113.631V114.82H34.896H35.1167L35.1036 113.611L35.0905 112.402L34.9178 112.387C34.8229 112.38 34.7295 112.389 34.7103 112.408ZM57.2226 112.41C57.2047 112.428 57.19 112.978 57.19 113.631V114.82H57.3854H57.5807V113.599V112.378H57.4179C57.3284 112.378 57.2405 112.392 57.2226 112.41ZM78.9558 112.41C78.9378 112.428 78.9232 112.978 78.9232 113.631V114.82H79.1185H79.3139V113.599V112.378H79.1511C79.0615 112.378 78.9736 112.392 78.9558 112.41ZM100.445 112.41C100.427 112.428 100.412 112.978 100.412 113.631V114.82H100.608H100.803V113.599V112.378H100.64C100.551 112.378 100.463 112.392 100.445 112.41ZM122.048 113.596V114.82H122.244H122.44L122.427 113.611L122.414 112.402L122.231 112.387L122.048 112.372V113.596ZM143.667 112.41C143.649 112.428 143.634 112.978 143.634 113.631V114.82H143.83H144.025V113.599V112.378H143.862C143.773 112.378 143.685 112.392 143.667 112.41ZM165.514 113.596V114.82H165.71H165.906L165.893 113.611L165.88 112.402L165.697 112.387L165.514 112.372V113.596ZM187.28 112.41C187.262 112.428 187.247 112.978 187.247 113.631V114.82H187.443H187.638V113.599V112.378H187.475C187.386 112.378 187.298 112.392 187.28 112.41ZM12.9422 118.434V119.655H13.1376H13.3329V118.434V117.213H13.1376H12.9422V118.434ZM34.6868 118.421L34.6998 119.63H34.8952H35.0905L35.1036 118.421L35.1167 117.213H34.8952H34.6737L34.6868 118.421ZM57.2014 118.421L57.2144 119.63L57.3976 119.645L57.5807 119.66V118.437V117.213H57.3845H57.1883L57.2014 118.421ZM78.9346 118.421L78.9476 119.63L79.1307 119.645L79.3139 119.66V118.437V117.213H79.1177H78.9215L78.9346 118.421ZM100.424 118.421L100.437 119.63L100.62 119.645L100.803 119.66V118.437V117.213H100.607H100.41L100.424 118.421ZM122.048 118.437V119.66L122.231 119.645L122.414 119.63L122.427 118.421L122.44 117.213H122.244H122.048V118.437ZM143.646 118.421L143.659 119.63L143.842 119.645L144.025 119.66V118.437V117.213H143.829H143.633L143.646 118.421ZM165.514 118.434V119.655H165.709H165.905V118.434V117.213H165.709H165.514V118.434ZM187.259 118.421L187.272 119.63L187.455 119.645L187.638 119.66V118.437V117.213H187.442H187.246L187.259 118.421ZM0 121.706V121.901H1.19655H2.39309V121.706V121.51H1.19655H0V121.706ZM4.83502 121.706V121.901H6.03157H7.22811V121.706V121.51H6.03157H4.83502V121.706ZM9.62121 121.706V121.901H10.8422H12.0631V121.706V121.51H10.8422H9.62121V121.706ZM14.4562 121.706V121.901H15.6528H16.8493V121.706V121.51H15.6528H14.4562V121.706ZM19.2912 121.706V121.901H20.4878H21.6843V121.706V121.51H20.4878H19.2912V121.706ZM24.0774 121.706V121.901H25.2984H26.5194V121.706V121.51H25.2984H24.0774V121.706ZM28.9125 121.705V121.901H30.1363H31.3603L31.3451 121.718L31.33 121.535L30.1212 121.522L28.9125 121.509V121.705ZM33.7475 121.706V121.901H34.944H36.1406V121.706V121.51H34.944H33.7475V121.706ZM38.5337 121.706V121.901H39.7546H40.9756V121.706V121.51H39.7546H38.5337V121.706ZM43.3687 121.706V121.901H44.5896H45.8106V121.706V121.51H44.5896H43.3687V121.706ZM46.592 121.705V121.901H47.7671H48.9422L48.927 121.718L48.9119 121.535L47.7519 121.522L46.592 121.509V121.705ZM51.3294 121.706V121.901H52.5259H53.7225V121.706V121.51H52.5259H51.3294V121.706ZM56.1156 121.706V121.901H57.3365H58.5575V121.706V121.51H57.3365H56.1156V121.706ZM60.9506 121.705V121.901H62.1745H63.3984L63.3832 121.718L63.3681 121.535L62.1593 121.522L60.9506 121.509V121.705ZM65.7856 121.706V121.901H66.9821H68.1787V121.706V121.51H66.9821H65.7856V121.706ZM70.6044 121.543C70.5864 121.561 70.5718 121.649 70.5718 121.738V121.901H71.7927H73.0137V121.706V121.51H71.8253C71.1717 121.51 70.6222 121.525 70.6044 121.543ZM75.4068 121.706V121.901H76.6278H77.8487V121.706V121.51H76.6278H75.4068V121.706ZM80.2418 121.706V121.901H81.4384H82.6349V121.706V121.51H81.4384H80.2418V121.706ZM85.0606 121.543C85.0427 121.561 85.028 121.649 85.028 121.738V121.901H86.249H87.4699V121.706V121.51H86.2816C85.6279 121.51 85.0785 121.525 85.0606 121.543ZM89.863 121.706V121.901H91.084H92.305V121.706V121.51H91.084H89.863V121.706ZM94.6981 121.705V121.901H95.922H97.1459L97.1307 121.718L97.1156 121.535L95.9068 121.522L94.6981 121.509V121.705ZM99.5331 121.706V121.901H100.73H101.926V121.706V121.51H100.73H99.5331V121.706ZM104.368 121.706V121.901H105.565H106.761V121.706V121.51H105.565H104.368V121.706ZM109.154 121.706V121.901H110.375H111.596V121.706V121.51H110.375H109.154V121.706ZM113.989 121.706V121.901H115.186H116.382V121.706V121.51H115.186H113.989V121.706ZM118.824 121.706V121.901H120.021H121.217V121.706V121.51H120.021H118.824V121.706ZM123.611 121.706V121.901H124.831H126.052V121.706V121.51H124.831H123.611V121.706ZM128.446 121.706V121.901H129.666H130.887V121.706V121.51H129.666H128.446V121.706ZM133.281 121.706V121.901H134.477H135.674V121.706V121.51H134.477H133.281V121.706ZM138.067 121.706V121.901H139.288H140.509V121.706V121.51H139.288H138.067V121.706ZM142.902 121.705V121.901H144.126H145.35L145.334 121.718L145.319 121.535L144.111 121.522L142.902 121.509V121.705ZM147.737 121.706V121.901H148.933H150.13V121.706V121.51H148.933H147.737V121.706ZM152.572 121.706V121.901H153.768H154.965V121.706V121.51H153.768H152.572V121.706ZM157.358 121.706V121.901H158.579H159.8V121.706V121.51H158.579H157.358V121.706ZM162.193 121.706V121.901H163.39H164.586V121.706V121.51H163.39H162.193V121.706ZM167.012 121.543C166.994 121.561 166.979 121.649 166.979 121.738V121.901H168.2H169.421V121.706V121.51H168.233C167.579 121.51 167.03 121.525 167.012 121.543ZM171.814 121.706V121.901H173.035H174.256V121.706V121.51H173.035H171.814V121.706ZM176.649 121.705V121.901H177.873H179.097L179.082 121.718L179.067 121.535L177.858 121.522L176.649 121.509V121.705ZM181.484 121.706V121.901H182.681H183.877V121.706V121.51H182.681H181.484V121.706ZM186.27 121.706V121.901H187.491H188.712V121.706V121.51H187.491H186.27V121.706ZM191.105 121.706V121.901H192.326H193.547V121.706V121.51H192.326H191.105V121.706ZM195.94 121.706V121.901H197.137H198.334V121.706V121.51H197.137H195.94V121.706ZM199.164 121.704V121.901H199.582H200L199.985 121.718L199.97 121.535L199.567 121.521L199.164 121.506V121.704ZM12.9422 123.244V124.441H13.1376H13.3329V123.244V122.048H13.1376H12.9422V123.244ZM34.6754 123.241V124.441H34.8961H35.1167L35.1036 123.256L35.0905 122.072L34.883 122.057L34.6754 122.042V123.241ZM57.19 123.244V124.441H57.3854H57.5807V123.244V122.048H57.3854H57.19V123.244ZM78.9558 122.08C78.9378 122.098 78.9232 122.637 78.9232 123.277V124.441H79.1185H79.3139V123.244V122.048H79.1511C79.0615 122.048 78.9736 122.062 78.9558 122.08ZM100.412 123.244V124.441H100.608H100.803V123.244V122.048H100.608H100.412V123.244ZM122.048 123.244V124.441H122.243H122.438V123.244V122.048H122.243H122.048V123.244ZM143.634 123.244V124.441H143.83H144.025V123.244V122.048H143.83H143.634V123.244ZM165.514 123.244V124.441H165.709H165.905V123.244V122.048H165.709H165.514V123.244ZM187.247 123.244V124.441H187.443H187.638V123.244V122.048H187.443H187.247V123.244ZM12.9422 128.079V129.276H13.1376H13.3329V128.079V126.883H13.1376H12.9422V128.079ZM34.6754 128.079V129.281L34.883 129.266L35.0905 129.251V128.079V126.907L34.883 126.892L34.6754 126.877V128.079ZM57.19 128.079V129.276H57.3854H57.5807V128.079V126.883H57.3854H57.19V128.079ZM78.9451 126.945C78.932 126.979 78.9272 127.512 78.9345 128.129L78.9476 129.251L79.1307 129.267L79.3139 129.282V128.082V126.883H79.1414C79.0466 126.883 78.9582 126.911 78.9451 126.945ZM100.412 128.079V129.276H100.608H100.803V128.079V126.883H100.608H100.412V128.079ZM122.048 128.079V129.276H122.243H122.438V128.079V126.883H122.243H122.048V128.079ZM143.634 128.079V129.276H143.83H144.025V128.079V126.883H143.83H143.634V128.079ZM165.514 128.079V129.276H165.709H165.905V128.079V126.883H165.709H165.514V128.079ZM187.247 128.079V129.276H187.443H187.638V128.079V126.883H187.443H187.247V128.079ZM12.9748 131.701C12.9569 131.719 12.9422 132.104 12.9422 132.556V133.378H13.1376H13.3329V132.524V131.669H13.1702C13.0806 131.669 12.9927 131.684 12.9748 131.701ZM34.6982 131.729C34.6842 131.765 34.6789 132.146 34.6863 132.574L34.6998 133.354H34.8952H35.0905V132.524V131.693L34.907 131.678C34.7865 131.668 34.7148 131.686 34.6982 131.729ZM57.2226 131.701C57.2047 131.719 57.19 132.104 57.19 132.556V133.378H57.3854H57.5807V132.524V131.669H57.4179C57.3284 131.669 57.2405 131.684 57.2226 131.701ZM78.9448 131.732C78.9315 131.767 78.9267 132.146 78.9341 132.574L78.9476 133.354L79.1307 133.369L79.3139 133.384V132.526V131.669H79.1414C79.0456 131.669 78.9582 131.697 78.9448 131.732ZM100.447 131.699C100.428 131.718 100.412 132.104 100.412 132.556V133.378H100.609H100.805L100.792 132.536L100.778 131.693L100.63 131.679C100.549 131.671 100.466 131.68 100.447 131.699ZM122.048 132.521V133.378H122.244H122.441L122.427 132.536L122.414 131.693L122.231 131.678L122.048 131.663V132.521ZM143.667 131.701C143.649 131.719 143.634 132.104 143.634 132.556V133.378H143.83H144.025V132.524V131.669H143.862C143.773 131.669 143.685 131.684 143.667 131.701ZM165.514 132.521V133.378H165.711H165.907L165.894 132.536L165.88 131.693L165.697 131.678L165.514 131.663V132.521ZM187.28 131.701C187.262 131.719 187.247 132.104 187.247 132.556V133.378H187.443H187.638V132.524V131.669H187.475C187.386 131.669 187.298 131.684 187.28 131.701Z" fill="white"/>
</svg>
