<svg width="32" height="34" viewBox="0 0 32 34" fill="none" xmlns="http://www.w3.org/2000/svg">
<path d="M16 31.9999C24.8366 31.9999 32 24.8364 32 15.9999C32 7.16331 24.8366 -0.000183105 16 -0.000183105C7.16344 -0.000183105 0 7.16331 0 15.9999C0 24.8364 7.16344 31.9999 16 31.9999Z" fill="url(#paint0_linear_1062_171)"/>
<path opacity="0.2" d="M17.7899 7.12848L15.3299 11.5868L10.3212 23.6736L8.19965 29.9479L8.23785 29.9861C10.6123 31.3054 13.2836 31.9985 16 32C19.4893 31.9965 22.8818 30.8525 25.6606 28.7422C28.4395 26.6319 30.4523 23.671 31.3924 20.3108L17.7899 7.12848Z" fill="url(#paint1_linear_1062_171)"/>
<path opacity="0.15" d="M31.9809 15.4791C31.8848 19.6552 30.1594 23.6281 27.1733 26.549C24.1872 29.4699 20.1772 31.1072 16 31.1111C11.8486 31.1083 7.86071 29.4921 4.87876 26.6038C1.89681 23.7154 0.154235 19.7811 0.0190972 15.6319C0.0113187 15.7545 0.0049525 15.8772 0 16C0 20.2434 1.68571 24.3131 4.68629 27.3137C7.68687 30.3142 11.7565 32 16 32C20.2435 32 24.3131 30.3142 27.3137 27.3137C30.3143 24.3131 32 20.2434 32 16C31.9965 15.8263 31.9901 15.6526 31.9809 15.4791V15.4791Z" fill="black"/>
<path d="M15.3761 10.0171L13.0667 11.3504L25.0667 32.1351L27.5547 33.7778L27.3761 30.8018L15.3761 10.0171Z" fill="#DCDCDC"/>
<path d="M25.7778 14.2148C25.7778 17.7778 24.719 18.623 23.4305 20.1286C22.7646 20.8959 21.9828 21.5473 21.0853 22.0395C19.8692 22.7199 18.0203 23.0964 16.5292 23.0964C15.0381 23.0964 13.6338 22.7055 12.4322 22.0395C11.5556 21.3334 9.77778 24 10.9555 24.3496C12.6059 25.2762 14.5169 25.7778 16.5437 25.7778C18.5704 25.7778 20.926 25.2762 22.5764 24.3496C23.4595 23.8574 24.2702 23.2494 24.9796 22.5545C27.1222 20.4698 28.4685 17.458 28.4685 14.2296C27.5544 14.2207 26.5884 14.2296 25.7778 14.2207V14.2148Z" fill="#C3C3C3"/>
<path d="M16.6231 10.0171L18.9325 11.3504L6.93243 32.1351L4.44444 33.7778L4.62303 30.8018L16.6231 10.0171Z" fill="#C3C3C3"/>
<path d="M18.7678 9.77773H17.7778V7.12512V7.1109H15.9928H14.2222V7.12512V9.77773H13.2177C12.3071 9.77773 11.5556 10.5302 11.5556 11.4303V15.782H11.57C11.5556 15.9249 11.6423 16.0821 11.8302 16.2677L15.1689 19.2126C15.4002 19.4412 15.7037 19.5555 15.9928 19.5555V19.5413L16.0072 19.5555C16.3108 19.5555 16.6143 19.4412 16.8311 19.2126L20.1698 16.2677C20.3577 16.0821 20.43 15.9106 20.43 15.782H20.4444V11.4447C20.43 10.5303 19.6929 9.77773 18.7678 9.77773H18.7678Z" fill="url(#paint2_linear_1062_171)"/>
<path d="M16.0058 15.1111H15.9942C15.0214 15.1111 14.2222 14.3198 14.2222 13.3451C14.2222 12.3704 15.0214 11.5791 15.9942 11.5791V11.556L16.0058 11.5791C16.9787 11.5906 17.7778 12.3704 17.7778 13.3451C17.7778 14.3198 16.9787 15.0996 16.0058 15.1111Z" fill="url(#paint3_radial_1062_171)"/>
<defs>
<linearGradient id="paint0_linear_1062_171" x1="16.8889" y1="31.9999" x2="16.8889" y2="-0.000183105" gradientUnits="userSpaceOnUse">
<stop stop-color="#3B962D"/>
<stop offset="1" stop-color="#93D169"/>
</linearGradient>
<linearGradient id="paint1_linear_1062_171" x1="12.4444" y1="9.77779" x2="28.4444" y2="25.7778" gradientUnits="userSpaceOnUse">
<stop/>
<stop offset="1" stop-opacity="0"/>
</linearGradient>
<linearGradient id="paint2_linear_1062_171" x1="16" y1="19.5553" x2="16" y2="7.1109" gradientUnits="userSpaceOnUse">
<stop stop-color="#272B2D"/>
<stop offset="1" stop-color="#3E4447"/>
</linearGradient>
<radialGradient id="paint3_radial_1062_171" cx="0" cy="0" r="1" gradientUnits="userSpaceOnUse" gradientTransform="translate(16 13.3331) scale(1.77778)">
<stop stop-color="#ACACAC"/>
<stop offset="1" stop-color="#CBCBCB"/>
</radialGradient>
</defs>
</svg>
